<svg width="39" height="12" viewBox="0 0 39 12" fill="none" xmlns="http://www.w3.org/2000/svg">
    <path d="M6.67188 3.4929C6.61884 3.02225 6.40009 2.65767 6.01562 2.39915C5.63116 2.13731 5.14725 2.00639 4.56392 2.00639C4.14631 2.00639 3.78504 2.07268 3.48011 2.20526C3.17519 2.33452 2.93821 2.51349 2.76918 2.74219C2.60346 2.96757 2.5206 3.22443 2.5206 3.51278C2.5206 3.75473 2.57694 3.96354 2.68963 4.1392C2.80563 4.31487 2.95644 4.46236 3.14205 4.58168C3.33097 4.69768 3.53314 4.79545 3.74858 4.875C3.96402 4.95123 4.17116 5.0142 4.37003 5.06392L5.36435 5.32244C5.68916 5.40199 6.02225 5.50971 6.36364 5.6456C6.70502 5.78149 7.02154 5.96046 7.31321 6.18253C7.60488 6.40459 7.8402 6.67969 8.01918 7.00781C8.20147 7.33594 8.29261 7.72869 8.29261 8.18608C8.29261 8.76278 8.14347 9.27486 7.84517 9.7223C7.55019 10.1697 7.12098 10.5227 6.55753 10.7812C5.9974 11.0398 5.3196 11.169 4.52415 11.169C3.76184 11.169 3.10227 11.0481 2.54545 10.8061C1.98864 10.5642 1.55279 10.2211 1.23793 9.77699C0.923059 9.32955 0.749053 8.79924 0.715909 8.18608H2.2571C2.28693 8.55398 2.40625 8.86056 2.61506 9.10582C2.82718 9.34777 3.0973 9.52841 3.42543 9.64773C3.75687 9.76373 4.11979 9.82173 4.5142 9.82173C4.94839 9.82173 5.33452 9.75379 5.67259 9.6179C6.01397 9.47869 6.28243 9.28646 6.47798 9.04119C6.67353 8.79261 6.77131 8.5026 6.77131 8.17116C6.77131 7.86955 6.68513 7.62263 6.51278 7.4304C6.34375 7.23816 6.1134 7.07907 5.82173 6.95312C5.53338 6.82718 5.20691 6.71615 4.84233 6.62003L3.6392 6.2919C2.82386 6.06984 2.17756 5.74337 1.70028 5.3125C1.22633 4.88163 0.989347 4.31155 0.989347 3.60227C0.989347 3.01562 1.14844 2.50355 1.46662 2.06605C1.7848 1.62855 2.21567 1.28883 2.75923 1.04688C3.30279 0.80161 3.91596 0.678977 4.59872 0.678977C5.28812 0.678977 5.89631 0.799952 6.4233 1.0419C6.9536 1.28385 7.37121 1.61695 7.67614 2.04119C7.98106 2.46212 8.14015 2.94602 8.15341 3.4929H6.67188ZM11.4956 6.46591V11H10.0091V0.818182H11.4757V4.60653H11.5701C11.7491 4.19555 12.0225 3.86908 12.3904 3.62713C12.7583 3.38518 13.2389 3.2642 13.8322 3.2642C14.3559 3.2642 14.8133 3.37192 15.2044 3.58736C15.5988 3.80279 15.9037 4.12429 16.1191 4.55185C16.3379 4.97609 16.4473 5.50639 16.4473 6.14276V11H14.9608V6.32173C14.9608 5.7616 14.8166 5.32741 14.5282 5.01918C14.2399 4.70762 13.8388 4.55185 13.3251 4.55185C12.9738 4.55185 12.6589 4.62642 12.3805 4.77557C12.1054 4.92472 11.8883 5.14347 11.7292 5.43182C11.5734 5.71686 11.4956 6.06155 11.4956 6.46591ZM20.6532 11.169C20.1693 11.169 19.7318 11.0795 19.3407 10.9006C18.9496 10.7183 18.6397 10.4548 18.411 10.1101C18.1857 9.76539 18.073 9.3428 18.073 8.84233C18.073 8.41146 18.1558 8.05682 18.3216 7.77841C18.4873 7.5 18.711 7.27959 18.9927 7.11719C19.2744 6.95478 19.5893 6.83215 19.9373 6.74929C20.2853 6.66643 20.64 6.60346 21.0012 6.56037C21.4586 6.50734 21.8298 6.46425 22.1149 6.43111C22.3999 6.39465 22.6071 6.33665 22.7363 6.2571C22.8656 6.17756 22.9302 6.0483 22.9302 5.86932V5.83452C22.9302 5.40033 22.8076 5.06392 22.5623 4.82528C22.3204 4.58665 21.9591 4.46733 21.4785 4.46733C20.978 4.46733 20.5836 4.57836 20.2953 4.80043C20.0102 5.01918 19.813 5.26278 19.7037 5.53125L18.3066 5.21307C18.4724 4.74905 18.7143 4.37453 19.0325 4.08949C19.354 3.80114 19.7235 3.59233 20.1412 3.46307C20.5588 3.33049 20.9979 3.2642 21.4586 3.2642C21.7636 3.2642 22.0867 3.30066 22.4281 3.37358C22.7728 3.44318 23.0943 3.57244 23.3926 3.76136C23.6942 3.95028 23.9411 4.22041 24.1333 4.57173C24.3256 4.91974 24.4217 5.37216 24.4217 5.92898V11H22.97V9.95597H22.9103C22.8142 10.1482 22.67 10.3371 22.4778 10.5227C22.2856 10.7083 22.0386 10.8625 21.737 10.9851C21.4354 11.1077 21.0742 11.169 20.6532 11.169ZM20.9764 9.97585C21.3874 9.97585 21.7387 9.89465 22.0304 9.73224C22.3253 9.56984 22.5491 9.35772 22.7015 9.09588C22.8573 8.83073 22.9352 8.54735 22.9352 8.24574V7.26136C22.8822 7.31439 22.7794 7.36411 22.627 7.41051C22.4778 7.4536 22.3071 7.49171 22.1149 7.52486C21.9226 7.55469 21.7354 7.58286 21.5531 7.60938C21.3708 7.63258 21.2183 7.65246 21.0957 7.66903C20.8074 7.70549 20.5439 7.76681 20.3052 7.85298C20.0699 7.93916 19.881 8.06345 19.7385 8.22585C19.5993 8.38494 19.5297 8.59706 19.5297 8.86222C19.5297 9.23011 19.6655 9.50852 19.9373 9.69744C20.2091 9.88305 20.5555 9.97585 20.9764 9.97585ZM26.4016 11V3.36364H27.8384V4.5767H27.918C28.0572 4.16572 28.3024 3.84257 28.6538 3.60724C29.0084 3.36861 29.4094 3.24929 29.8569 3.24929C29.9497 3.24929 30.0591 3.2526 30.185 3.25923C30.3143 3.26586 30.4154 3.27415 30.4883 3.28409V4.70597C30.4286 4.68939 30.3226 4.67116 30.1701 4.65128C30.0176 4.62808 29.8652 4.61648 29.7127 4.61648C29.3614 4.61648 29.0482 4.69105 28.7731 4.8402C28.5013 4.98603 28.2859 5.18987 28.1268 5.4517C27.9677 5.71023 27.8881 6.00521 27.8881 6.33665V11H26.4016ZM34.7924 11.1541C34.0401 11.1541 33.3921 10.9934 32.8485 10.6719C32.3083 10.3471 31.8907 9.89134 31.5957 9.30469C31.304 8.71473 31.1582 8.02367 31.1582 7.23153C31.1582 6.44934 31.304 5.75994 31.5957 5.16335C31.8907 4.56676 32.3017 4.10109 32.8287 3.76633C33.359 3.43158 33.9788 3.2642 34.688 3.2642C35.1189 3.2642 35.5365 3.33546 35.9409 3.47798C36.3452 3.6205 36.7082 3.84422 37.0297 4.14915C37.3511 4.45407 37.6047 4.85014 37.7903 5.33736C37.9759 5.82126 38.0687 6.40956 38.0687 7.10227V7.62926H31.9984V6.51562H36.612C36.612 6.12453 36.5325 5.77817 36.3734 5.47656C36.2143 5.17164 35.9906 4.93134 35.7022 4.75568C35.4172 4.58002 35.0824 4.49219 34.698 4.49219C34.2804 4.49219 33.9158 4.59493 33.6042 4.80043C33.296 5.0026 33.0574 5.26776 32.8883 5.59588C32.7226 5.92069 32.6397 6.27367 32.6397 6.65483V7.52486C32.6397 8.03527 32.7292 8.46946 32.9082 8.82741C33.0905 9.18537 33.344 9.45881 33.6689 9.64773C33.9937 9.83333 34.3732 9.92614 34.8074 9.92614C35.0891 9.92614 35.3459 9.88636 35.5779 9.80682C35.81 9.72396 36.0105 9.60133 36.1795 9.43892C36.3485 9.27652 36.4778 9.07599 36.5673 8.83736L37.9743 9.09091C37.8616 9.50521 37.6594 9.86813 37.3677 10.1797C37.0794 10.4879 36.7164 10.7282 36.2789 10.9006C35.8448 11.0696 35.3493 11.1541 34.7924 11.1541Z" fill="white"/>
    </svg>